<?xml version="1.0" standalone="no"?>
<!DOCTYPE svg PUBLIC "-//W3C//DTD SVG 20010904//EN"
 "http://www.w3.org/TR/2001/REC-SVG-20010904/DTD/svg10.dtd">
<svg version="1.0" xmlns="http://www.w3.org/2000/svg"
 width="700.000000pt" height="700.000000pt" viewBox="0 0 700.000000 700.000000"
 preserveAspectRatio="xMidYMid meet">
<metadata>
Created by potrace 1.11, written by Peter Selinger 2001-2013
</metadata>
<g transform="translate(0.000000,700.000000) scale(0.100000,-0.100000)"
fill="#000000" stroke="none">
<path d="M3588 6865 c-2 -2 -46 -6 -98 -10 -115 -8 -162 -12 -215 -20 -22 -3
-58 -8 -80 -10 -22 -3 -77 -12 -123 -21 -570 -105 -1058 -313 -1477 -628 -44
-33 -82 -62 -85 -65 -3 -3 -34 -30 -70 -60 -222 -185 -488 -509 -637 -776 -82
-147 -209 -428 -230 -510 -1 -5 -20 -71 -42 -145 -35 -115 -71 -271 -87 -369
-2 -14 -6 -35 -9 -46 -2 -11 -7 -49 -11 -85 -3 -36 -8 -68 -10 -71 -8 -14 -17
-234 -18 -409 0 -191 7 -330 25 -460 5 -41 12 -91 14 -110 3 -19 7 -46 10 -60
2 -14 7 -42 10 -62 2 -21 9 -58 15 -83 6 -25 13 -62 16 -83 13 -80 87 -357
134 -502 213 -647 566 -1181 1013 -1535 21 -16 44 -36 52 -42 7 -7 70 -51 140
-97 117 -79 325 -190 455 -246 124 -52 347 -121 485 -151 85 -18 85 -18 135
-25 25 -3 48 -8 51 -10 9 -5 135 -19 269 -31 151 -12 589 -5 650 12 8 2 44 6
80 10 77 7 237 31 270 40 8 2 29 7 45 9 61 11 267 56 274 61 4 2 21 7 38 9 76
14 372 106 518 163 135 52 308 131 420 193 56 30 112 61 125 68 30 15 185 126
230 164 281 234 375 453 321 746 -54 289 -228 508 -456 575 -77 22 -209 22
-303 -2 -81 -20 -130 -42 -462 -204 -377 -184 -679 -298 -931 -353 -726 -156
-1315 63 -1682 627 -31 47 -61 97 -67 110 -5 13 -14 31 -19 39 -30 47 -146
348 -138 356 1 1 540 5 1197 9 2451 12 2866 15 2895 21 118 25 235 170 298
370 56 178 80 364 81 634 0 141 -11 376 -18 389 -2 3 -7 33 -11 66 -3 33 -11
80 -17 105 -5 25 -12 56 -14 69 -26 134 -133 487 -190 624 -59 143 -133 296
-201 414 -51 89 -178 282 -216 329 -113 138 -148 179 -201 234 -300 313 -655
540 -1061 678 -88 30 -224 69 -268 78 -12 2 -67 13 -122 24 -55 11 -123 22
-151 25 -28 3 -59 7 -70 9 -61 11 -467 29 -476 21z m262 -1384 c41 -7 84 -14
95 -16 149 -25 348 -108 491 -205 94 -63 114 -80 214 -180 135 -135 238 -284
325 -473 35 -76 109 -286 103 -292 -3 -3 -79 -17 -338 -61 -80 -14 -156 -27
-170 -30 -14 -2 -40 -7 -59 -10 -18 -3 -43 -7 -55 -10 -11 -2 -100 -18 -196
-34 -96 -17 -183 -33 -193 -36 -12 -4 -4 9 20 33 57 57 83 119 108 253 9 43 9
262 1 310 -63 375 -256 625 -563 731 -31 10 -64 19 -74 19 -10 0 -20 3 -22 8
-8 11 230 6 313 -7z m-776 -80 c-161 -88 -298 -242 -358 -403 -26 -69 -30 -82
-47 -183 -10 -56 -7 -203 6 -270 35 -182 96 -329 180 -430 49 -61 121 -127
155 -145 l31 -16 -103 -18 c-57 -10 -112 -19 -123 -21 -11 -1 -58 -10 -105
-19 -47 -8 -101 -18 -120 -21 -19 -3 -60 -10 -90 -16 -30 -6 -64 -12 -75 -14
-11 -1 -36 -6 -55 -9 -19 -4 -84 -15 -145 -26 -60 -11 -123 -22 -140 -25 -16
-3 -46 -8 -65 -11 -19 -3 -41 -7 -47 -9 -15 -5 -15 -2 -13 80 12 605 255 1077
703 1369 113 73 231 133 369 186 94 36 105 36 42 1z"/>
</g>
</svg>
