<?xml version="1.0" encoding="UTF-8"?>
<!DOCTYPE svg  PUBLIC '-//W3C//DTD SVG 1.1//EN'  'http://www.w3.org/Graphics/SVG/1.1/DTD/svg11.dtd'>
<svg width="432.9" height="122.81" version="1.1" viewBox="0, 0, 432.898, 122.808" xmlns="http://www.w3.org/2000/svg">
<g transform="translate(-3.551 -3.596)">
<path d="m56.015 3.603c26.143-0.406 43.068 16.354 47.961 41.242 1.487 8.432 0.924 23.86-5.912 25.065l-66.21 0.341c2.8 10.55 12.075 21.838 29.394 18.784 6.609-1.165 12.896-4.153 17.441-6.365 2.802-1.433 4.92-2.747 7.655-3.229 5.925-1.045 10.455 3.326 11.58 9.707 0.764 4.33-0.537 7.614-3.969 10.804-6.033 5.763-17.254 10.091-28.648 12.1-31.677 5.586-54.852-11.241-60.718-44.513-5.546-31.448 11.482-57.478 42.931-63.024 4.747-0.728 1.922-0.363 8.495-0.912zm-7.723 23.208c-12.98 4.096-19.41 13.784-19.291 27.26l17.744-3.129c-0.905-0.273-0.848-0.233-2.16-1.474-2.934-2.775-4.013-6.982-4.177-10.871 0.079-5.244 3.147-9.678 7.884-11.786zm10.077-0.902l-4.169 0.016c6.526 1.055 10.454 6.349 11.263 12.672 0.213 2.657 0.34 8.12-2.643 9.511l17-2.998c-2.282-8.51-8.057-15.853-16.763-18.34-1.528-0.436-3.125-0.574-4.688-0.861zm145.38 26.191c6.48 0 12.096 4.464 12.096 12.24 0 7.2-5.76 12.096-11.808 12.096-6.624 0-11.952-4.32-11.952-12.096 0-7.92 5.328-12.24 11.664-12.24zm1.584-22.464c-20.16 0-35.568 13.248-35.568 34.848v50.544c0 5.76 4.752 11.376 11.808 11.376 7.2 0 11.52-6.048 11.52-11.376v-21.6c2.736 2.304 8.352 4.32 14.688 4.32 18.432 0 31.392-14.976 31.392-33.408 0-22.176-15.12-34.704-33.84-34.704zm-69.552 0c-14.688 0-26.784 7.776-26.784 21.6 0 15.696 11.376 18.72 24.768 21.312 4.608 0.864 7.2 1.296 7.2 3.888 0 2.304-2.16 2.88-4.752 2.88-4.32 0-8.064-1.584-12.96-4.176-1.152-0.576-2.88-1.728-5.04-1.728-4.176 0-9.504 4.464-9.504 9.792 0 2.592 0.72 4.32 2.592 6.48 3.744 4.176 12.96 8.064 24.48 8.064 15.984 0 27.936-7.2 27.936-22.464 0-15.984-12.096-19.44-24.48-21.6-4.608-0.864-7.488-1.44-7.488-3.888 0-1.728 1.44-2.592 3.888-2.592 2.592 0 5.904 1.008 9.792 2.736 3.024 1.296 5.328 2.16 7.92 2.16 5.76 0 8.928-5.184 8.928-9.648 0-2.304-0.864-4.032-3.024-6.048-4.32-4.032-13.104-6.768-23.472-6.768zm141.55 22.464c6.624 0 11.664 4.464 11.664 12.24 0 7.056-5.184 12.096-11.376 12.096-6.768 0-11.664-4.32-11.664-12.096s4.896-12.24 11.376-12.24zm1.296-22.464c-20.16 0-35.424 14.256-35.424 34.704 0 24.624 17.856 33.408 33.984 33.408 21.6 0 35.712-14.976 35.712-33.408 0-21.6-15.552-34.704-34.272-34.704zm122.26 22.464c6.624 0 11.664 4.464 11.664 12.24 0 7.056-5.184 12.096-11.376 12.096-6.768 0-11.664-4.32-11.664-12.096s4.896-12.24 11.376-12.24zm1.296-22.464c-20.14 0.446-35.289 14.087-35.424 34.704 0 24.624 17.856 33.408 33.984 33.408 21.6 0 35.712-14.976 35.712-33.408-0.349-15.431-8.692-29.059-24.158-33.353-2.169-0.602-4.43-0.799-6.645-1.199l-3.469-0.152zm-55.44 0c-17.28 0-28.512 9.36-28.512 29.664v26.496c0 6.336 4.032 11.376 11.52 11.376 7.2 0 11.376-5.904 11.376-11.376v-27.648c0-4.752 1.728-6.912 5.04-6.912 3.744 0 7.344 2.016 10.944 2.016 6.624 0 9.936-5.76 9.936-11.376 0-2.16-0.576-5.184-3.744-7.776-4.32-3.456-10.08-4.464-16.56-4.464z" fill="#0095DD"/>
</g>
</svg>
