<svg xmlns="http://www.w3.org/2000/svg" xmlns:xlink="http://www.w3.org/1999/xlink" shape-rendering="geometricPrecision" text-rendering="geometricPrecision" image-rendering="optimizeQuality">
  <defs>
    <symbol id="site-logo" viewBox="0 0 1328.246 348.985">
      <path d="M155.48.021c77.477-1.15 127.635 46.322 142.136 116.817 4.407 23.884 2.738 67.583-17.521 70.996l-196.218.966c8.298 29.883 35.785 61.856 87.111 53.205 19.587-3.299 38.219-11.763 51.688-18.028 8.304-4.059 14.581-7.781 22.686-9.146 17.56-2.96 30.985 9.42 34.319 27.495 2.264 12.264-1.592 21.566-11.763 30.602-17.879 16.323-51.134 28.582-84.9 34.273C89.14 323.023 20.459 275.361 3.075 181.118-13.361 92.042 37.103 18.313 130.304 2.604 144.372.542 136 1.576 155.48.021zm-22.888 65.736c-38.467 11.602-57.523 39.043-57.17 77.214l52.586-8.863c-2.682-.774-2.514-.66-6.402-4.175-8.695-7.861-11.893-19.777-12.379-30.792.235-14.854 9.327-27.413 23.365-33.384zm29.864-2.555l-12.355.045c19.34 2.989 30.981 17.984 33.379 35.894.631 7.526 1.007 22.999-7.833 26.939l50.381-8.491c-6.763-24.105-23.878-44.904-49.679-51.948-4.528-1.235-9.261-1.626-13.893-2.439zM483.07 201.615c0-46.079-36.485-56.042-73.838-62.269-13.899-2.491-22.586-4.151-22.586-11.209 0-4.981 4.343-7.472 11.727-7.472 7.818 0 17.808 2.906 29.535 7.887 9.122 3.737 16.071 6.227 23.889 6.227 17.374 0 26.929-14.944 26.929-27.813 0-6.642-2.606-11.624-9.121-17.436-13.03-11.623-39.525-19.511-70.797-19.511-44.303 0-80.788 22.417-80.788 62.27 0 45.249 34.313 53.966 74.707 61.439 13.899 2.49 21.717 3.736 21.717 11.208 0 6.642-6.515 8.303-14.334 8.303-13.03 0-24.323-4.567-39.09-12.039-3.475-1.661-8.687-4.982-15.202-4.982-12.596 0-28.667 12.869-28.667 28.229 0 7.472 2.172 12.454 7.818 18.681 11.293 12.039 39.091 23.247 73.839 23.247 48.211 0 84.262-20.756 84.262-64.76zm94.239 52.306c8.252 6.642 25.191 12.454 44.302 12.454 55.596 0 94.687-43.173 94.687-96.31 0-63.93-45.606-100.046-102.07-100.046-60.808 0-107.283 38.192-107.283 100.461v145.711c0 16.605 14.334 32.795 35.616 32.795 21.717 0 34.748-17.436 34.748-32.795zm33.01-48.985c-19.98 0-36.051-12.454-36.051-34.871 0-22.832 16.071-35.286 35.182-35.286 19.545 0 36.485 12.869 36.485 35.286 0 20.757-17.374 34.871-35.616 34.871zm333.995-34.871c0-62.269-46.909-100.046-103.373-100.046-60.808 0-106.848 41.098-106.848 100.046 0 70.987 53.858 96.31 102.504 96.31 65.152 0 107.717-43.173 107.717-96.31zM837.9 204.936c-20.414 0-35.181-12.454-35.181-34.871s14.767-35.286 34.313-35.286c19.979 0 35.181 12.869 35.181 35.286 0 20.342-15.636 34.871-34.313 34.871zm197.178-52.721c0-13.7 5.212-19.926 15.202-19.926 11.293 0 22.152 5.811 33.01 5.811 19.98 0 29.97-16.605 29.97-32.795 0-6.227-1.738-14.944-11.293-22.417-13.03-9.963-30.404-12.869-49.949-12.869-52.121 0-86 26.984-86 85.517v76.383c0 18.266 12.161 32.795 34.747 32.795 21.717 0 34.313-17.02 34.313-32.795zm293.168 17.85c0-62.269-46.909-100.046-103.373-100.046-60.808 0-106.849 41.098-106.849 100.046 0 70.987 53.859 96.31 102.505 96.31 65.151 0 107.717-43.173 107.717-96.31zm-106.414 34.871c-20.414 0-35.182-12.454-35.182-34.871s14.768-35.286 34.313-35.286c19.98 0 35.182 12.869 35.182 35.286 0 20.342-15.636 34.871-34.313 34.871z" />
    </symbol>
  </defs>
</svg>
